<?xml version="1.0" encoding="utf-8"?>
<!-- Generator: Adobe Illustrator 19.0.0, SVG Export Plug-In . SVG Version: 6.00 Build 0)  -->
<svg version="1.1" id="layer" xmlns="http://www.w3.org/2000/svg" xmlns:xlink="http://www.w3.org/1999/xlink" x="0px" y="0px"
	 viewBox="-153 -46 652 652" style="enable-background:new -153 -46 652 652;" xml:space="preserve">
<style type="text/css">
	.st0{fill:#366BAC;}
</style>
<path class="st0" d="M53.7,321.3c-10.5,0-18.8-3.2-24.6-9.5c-5.9-6.3-8.8-15.3-8.8-26.8c0-11.2,3.1-20,9.3-26.2
	c6.2-6.2,14.4-9.4,24.4-9.4c8,0,14.9,1.8,20.4,5.2l0.6,0.4L70.5,268l-0.9-0.5c-5.4-2.8-10.5-4.2-15.1-4.2c-5.2,0-9.1,1.8-12.1,5.5
	c-3,3.7-4.5,9.2-4.5,16.4c0,7.3,1.5,12.8,4.4,16.6c2.9,3.7,7,5.5,12.4,5.5c5.7,0,11.2-1.7,16.5-5.1l1.2-0.8l1.8,14.1l-0.5,0.3
	c-2.9,1.9-5.9,3.3-9,4.2C61.6,320.8,57.9,321.3,53.7,321.3 M142.6,276.5c0-9.1-2.2-16-6.5-20.5c-4.3-4.5-10.4-6.7-18.1-6.7
	c-8.4,0-15.3,2.7-20.6,8.1c0-1,0.1-2.4,0.1-4.1c0.1-4.2,0.2-6.9,0.2-7.8v-20.3L80,226.3V320h17.8v-33.2c0-5.9,0.5-10.7,1.4-14.4
	c1.3-2.7,3.3-4.9,5.9-6.6c2.6-1.7,5.7-2.6,9-2.6c3.9,0,6.6,1.1,8.2,3.5c1.6,2.4,2.5,6.3,2.5,11.6V320h17.8V276.5z M183.5,321.3
	c9.4,0,17.7-2.1,24.5-6.4l0.5-0.3l-2.6-13.2l-1.1,0.6c-6.6,3.7-13.6,5.6-20.7,5.6c-5.5,0-9.8-1.6-12.9-4.9
	c-2.9-3.1-4.6-7.5-4.9-13.1H211v-0.9c0-0.7,0-1.9,0-3.4c0-1.6,0-2.7,0-3.4c0-9.8-2.7-17.7-7.9-23.6c-5.3-6-12.7-9-22.2-9
	c-10,0-18,3.4-23.8,9.8c-5.8,6.5-8.7,15.2-8.7,26.1c0,11.2,3.1,20,9.3,26.4C163.8,318,172.5,321.3,183.5,321.3 M166.7,277.8
	c0.5-4.9,2-8.7,4.5-11.2c2.7-2.7,5.9-4,9.8-4c4.2,0,7.3,1.3,9.7,4.1c2.2,2.6,3.4,6.3,3.5,11.1H166.7 M241.3,250.2
	c-7.9,0-14.1,1.6-18.5,4.9c-4.4,3.3-6.6,7.9-6.6,14.1c0,5.1,1.4,9.1,4.1,12c2.7,3,7.2,5.6,13.4,8c0.5,0.2,1.7,0.6,3.5,1.3
	c5.2,2,8.8,3.7,10.6,5c1.9,1.3,2.8,3.2,2.8,5.5c0,2.6-1.1,4.5-3,5.8c-2,1.3-4.7,2-8.3,2c-3.4,0-7.2-0.6-11.4-1.7
	c-4.2-1.2-7.6-2.5-10.3-3.9l-1.7,12c6,3.4,13.9,5.1,23.8,5.1c8.3,0,14.7-1.8,19.3-5.5c4.5-3.7,6.8-8.9,6.8-15.6
	c0-5-1.4-9.1-4.3-12.2c-2.9-3.1-7.4-5.8-13.6-8c-0.5-0.2-1.2-0.5-2.1-0.8c-0.9-0.3-1.4-0.5-1.6-0.6c-5.1-1.9-8.5-3.4-10.3-4.6
	c-1.8-1.2-2.6-2.8-2.6-4.9c0-2.2,0.9-3.8,2.7-4.9c1.8-1.1,4.3-1.6,7.6-1.6c5.8,0,11.9,1.5,18.3,4.5 M239.7,321.2
	c8.5,0,15.2-1.9,19.8-5.7c4.7-3.8,7.1-9.3,7.2-16.3c0-5.2-1.5-9.5-4.6-12.8c-3-3.2-7.7-6-13.9-8.3c-0.5-0.2-1.2-0.5-2.1-0.8
	c-1.2-0.4-1.5-0.5-1.6-0.5c-5-1.8-8.4-3.3-10.1-4.5c-1.5-1-2.2-2.3-2.2-4.1c0-1.9,0.7-3.2,2.3-4.2c1.7-1,4.1-1.5,7.1-1.5
	c5.6,0,11.7,1.5,17.9,4.4l0.9,0.4l4.6-12.7l-0.7-0.4c-6.6-3.3-14.3-4.9-23-4.9c-8.1,0-14.5,1.7-19,5.1c-4.6,3.4-7,8.4-7,14.8
	c0,5.3,1.5,9.5,4.3,12.6c2.8,3,7.4,5.8,13.7,8.3c0.5,0.2,1.7,0.6,3.5,1.3c5.1,2,8.6,3.6,10.4,4.9c1.6,1.2,2.4,2.7,2.4,4.8
	c0,2.3-0.9,3.9-2.6,5.1c-1.8,1.2-4.4,1.8-7.8,1.8c-3.3,0-7.1-0.6-11.1-1.7c-4.1-1.1-7.5-2.4-10.1-3.9l-1.1-0.6l-1.9,13.9l0.5,0.3
	C221.5,319.5,229.7,321.2,239.7,321.2 M294.9,321.2c8.5,0,15.2-1.9,19.8-5.7c4.7-3.8,7.1-9.3,7.2-16.3c0-5.2-1.5-9.5-4.6-12.8
	c-3-3.2-7.7-6-13.9-8.3c-0.5-0.2-1.2-0.5-2.1-0.8c-1.2-0.4-1.5-0.5-1.6-0.5c-5-1.8-8.4-3.3-10.1-4.5c-1.5-1-2.2-2.3-2.2-4.1
	c0-1.9,0.7-3.2,2.3-4.2c1.7-1,4.1-1.5,7.1-1.5c5.6,0,11.7,1.5,17.9,4.4l0.9,0.4l4.6-12.7l-0.7-0.4c-6.6-3.3-14.3-4.9-23-4.9
	c-8.1,0-14.5,1.7-19,5.1c-4.6,3.4-7,8.4-7,14.8c0,5.3,1.5,9.5,4.3,12.6c2.8,3,7.4,5.8,13.7,8.3c0.5,0.2,1.7,0.6,3.5,1.3
	c5.1,2,8.6,3.6,10.4,4.9c1.6,1.2,2.4,2.7,2.4,4.8c0,2.3-0.9,3.9-2.6,5.1c-1.8,1.2-4.4,1.8-7.8,1.8c-3.3,0-7.1-0.6-11.1-1.7
	c-4.1-1.1-7.5-2.4-10.1-3.9l-1.1-0.6l-1.9,13.9l0.5,0.3C276.7,319.5,284.9,321.2,294.9,321.2 M379.3,307.6h-31.2l16.6-17.6
	c4.7-4.9,8.5-9.8,11.3-14.4c2.8-4.7,4.2-9.8,4.2-15.1c0-7.5-2.5-13.3-7.5-17.4c-4.9-4.1-11.5-6.1-19.6-6.1
	c-10.1,0-18.1,2.5-23.7,7.4l-0.5,0.4l4.8,12.6l1-0.9c2-1.8,4.7-3.3,7.8-4.6c3.2-1.2,6.4-1.8,9.7-1.8c3.4,0,6.2,1,8.3,2.9
	c2.1,1.9,3.1,4.4,3.1,7.6c0,3-0.7,5.9-2.1,8.5c-1.4,2.7-3.7,5.8-6.7,9.1l-25.6,28.9l0.4,13h48.5L379.3,307.6z M436,302.3h9.1
	l0.8-12.6H436v-51.1h-19.6l-32.8,52.9v10.9h36.1v17.8H436V302.3z M419.8,256.8v33h-19.5L419.8,256.8z M459.2,257.3
	c5.1,0,9.3-4.1,9.3-9.3c0-5.1-4.2-9.3-9.3-9.3s-9.3,4.2-9.3,9.3C449.9,253.1,454,257.3,459.2,257.3 M450.7,248
	c0-4.7,3.8-8.5,8.5-8.5c4.7,0,8.5,3.8,8.5,8.5c0,4.7-3.8,8.5-8.5,8.5C454.5,256.5,450.7,252.7,450.7,248 M455.5,253.1h2.4v-4h0.7
	c1.1,0,1.5,0.2,1.9,1.6c0.4,1.6,0.6,2.1,0.8,2.4h2.5c-0.3-0.4-0.7-1.9-1-2.9c-0.3-0.9-0.7-1.6-1.5-1.8v0c1-0.3,2-1.1,2-2.6
	c0-1-0.4-1.7-1-2.2c-0.8-0.6-1.9-0.9-3.5-0.9c-1.4,0-2.6,0.1-3.3,0.2V253.1z M457.9,244.6c0.2,0,0.5-0.1,1.2-0.1
	c1.1,0,1.8,0.5,1.8,1.4c0,0.9-0.8,1.5-2,1.5h-1V244.6z M2.1,224.5c2.4,18.8,2.3,85.9,0,102.1c-1.3,9.2-5.8,13.1-13.7,14.3
	c-18.5,2.8-87.6,2.5-104.4-0.3c-7.9-1.3-12.4-5.1-13.7-14.3c-2.3-16.2-2.4-83.3,0-102.1c1-8,5.6-12.8,13.7-14.3
	c17.4-3.3,86.4-3.6,104.4,0.3C-3.5,211.9,1.1,216.5,2.1,224.5 M-22.8,236.2c0-1-0.8-1.8-1.8-1.8h-24.8c-1,0-1.8,0.8-1.8,1.8V261
	c-0.1,0-0.2,0-0.3,0h-24.8c-1,0-1.8,0.8-1.8,1.8v24.8c-0.1,0-0.2,0-0.3,0H-103c-1,0-1.8,0.8-1.8,1.8v25.2c0,1,0.8,1.8,1.8,1.8h24.8
	c1,0,1.8-0.8,1.8-1.8v-24.8c0.1,0,0.2,0,0.3,0h24.8c1,0,1.8-0.8,1.8-1.8v-24.8c0.1,0,0.2,0,0.3,0h24.8c1,0,1.8-0.8,1.8-1.8V236.2z"
	/>
</svg>
