<?xml version="1.0" encoding="UTF-8" standalone="no"?>
<svg
   version="1.1"
   x="0px"
   y="0px"
   width="211.7"
   height="60.700001"
   viewBox="0 0 211.69998 60.700004"
   xml:space="preserve"
   id="svg21"
   sodipodi:docname="logochess.svg"
   inkscape:version="1.3.2 (091e20e, 2023-11-25, custom)"
   xmlns:inkscape="http://www.inkscape.org/namespaces/inkscape"
   xmlns:sodipodi="http://sodipodi.sourceforge.net/DTD/sodipodi-0.dtd"
   xmlns="http://www.w3.org/2000/svg"
   xmlns:svg="http://www.w3.org/2000/svg"><defs
   id="defs21">
        
        
        
        
        
        
        
        
        
        
        
        
        
        
        
        
        
        
        
        
        
    </defs><sodipodi:namedview
   id="namedview21"
   pagecolor="#ffffff"
   bordercolor="#000000"
   borderopacity="0.25"
   inkscape:showpageshadow="2"
   inkscape:pageopacity="0.0"
   inkscape:pagecheckerboard="0"
   inkscape:deskcolor="#d1d1d1"
   showgrid="false"
   inkscape:zoom="1.9764083"
   inkscape:cx="51.102801"
   inkscape:cy="87.785505"
   inkscape:window-width="1920"
   inkscape:window-height="1017"
   inkscape:window-x="-8"
   inkscape:window-y="-8"
   inkscape:window-maximized="1"
   inkscape:current-layer="svg21" />
    <style
   type="text/css"
   id="style1">
        .lockup-text{fill:#000000;}
        .lockup-icon{fill:#000000;}
    </style>
    <path
   class="lockup-icon"
   d="m 21.616236,23.032288 h -0.03363 v 0 c 0.01682,-0.0192 0.01682,-0.0192 0.03363,0 m 4.339185,25.98482 c 0,-0.0768 -0.03363,-0.13444 -0.05045,-0.19206 0,-0.0192 -0.01682,-0.0384 -0.03364,-0.0576 -0.03364,-0.15364 -0.134548,-0.28808 -0.269097,-0.40331 v 0 0 c -0.05045,-0.0384 -0.100911,-0.096 -0.168186,-0.13444 0.134549,-0.17285 0.319553,-0.59536 0.336371,-0.96027 0,-0.0576 0,-0.11522 -0.01682,-0.17284 -0.06728,-0.23047 -0.168186,-0.3457 -0.319553,-0.46093 v -0.0192 0 c -0.08409,-0.0576 -0.201822,-0.13444 -0.302734,-0.23046 -0.285915,-0.24968 -0.353189,-0.42252 -0.353189,-0.59537 -0.01682,-0.40331 0.470919,-0.88344 0.470919,-1.63245 0,-0.13444 -0.01682,-0.26887 -0.05045,-0.44173 -0.521376,-1.74768 -2.472326,-2.70795 -3.464621,-6.39538 v -0.0576 h -0.01682 c -0.05046,-0.19205 -0.08409,-0.3649 -0.134549,-0.55695 -0.302734,-1.03709 -0.470919,-3.45696 -0.470919,-6.26094 0,-1.26755 0.03363,-2.63113 0.100911,-3.9755 0,-0.096 0.01682,-0.19206 0.01682,-0.26888 0.285915,-0.11523 0.555012,-0.23046 0.655923,-0.26887 0.151367,-0.13444 0.151367,-0.3649 0.151367,-0.59537 -0.01682,-0.11523 0,-0.19205 -0.06727,-0.28808 -0.08409,-0.0768 -0.386827,-0.32649 -0.571831,-0.48013 0.218641,-0.0768 0.571831,-0.19206 0.672742,-0.28808 0.11773,-0.15365 0.11773,-0.40331 0.134548,-0.67219 0,-0.0768 -0.01682,-0.13443 -0.01682,-0.17285 v -0.0384 0 c 0,-0.0384 -0.01682,-0.096 -0.03364,-0.13444 -0.08409,-0.13443 -0.386827,-0.30728 -0.58865,-0.42251 0.201823,-0.096 0.487738,-0.21126 0.555013,-0.24967 0.134547,-0.15364 0.117729,-0.38411 0.134547,-0.59536 0,-0.11524 0,-0.19206 -0.03364,-0.26888 -0.05046,-0.11523 -0.134548,-0.13444 -0.252278,-0.21126 -0.100911,-0.0576 -0.201823,-0.13444 -0.319552,-0.17285 0.151367,-1.05629 0.470919,-2.01656 0.68956,-2.803979 0.706379,-2.611925 1.39594,-3.937092 1.412758,-4.301993 v 0 h -0.01682 c -0.08409,-0.42252 -0.655923,-0.65298 -1.395939,-0.902654 -0.740016,-0.230459 -1.648218,-0.384103 -2.388233,-0.422514 -0.05046,-0.32649 -0.11773,-0.74901 -0.151367,-0.979475 0.285915,0.07682 0.941839,0.268876 0.992294,0.288085 l 0.100911,0.03844 0.01682,-0.09603 c 0,-0.01922 0.06727,-0.32649 0.06727,-0.921856 0,-0.595367 -0.06727,-0.883445 -0.06727,-0.883445 l -0.01682,-0.09602 -1.076387,0.268871 c 0.08409,-0.32649 0.269097,-1.0562922 0.285916,-1.1523162 l 0.01682,-0.09603 -0.08409,-0.01922 c 0,0 -0.319553,-0.07682 -0.908202,-0.07682 -0.605468,0 -0.874564,0.07682 -0.874564,0.07682 l -0.08409,0.01922 0.06727,0.03844 c 0.01682,0.09603 0.201823,0.8258322 0.285915,1.1523222 l -1.076386,-0.268877 v 0.09603 c 0,0 -0.06727,0.288079 -0.06727,0.883446 0,0.576157 0.06727,0.902647 0.06727,0.902647 l 0.01682,0.09603 0.08409,-0.03844 c 0.05046,-0.01922 0.706379,-0.211263 1.009113,-0.288079 -0.03363,0.23046 -0.100911,0.65298 -0.168186,0.960267 -0.756834,0.01922 -1.665036,0.192049 -2.42187,0.422514 -0.773653,0.249668 -1.362302,0.480134 -1.446394,0.902654 v 0.01922 c 0.01682,0.345698 0.706378,1.690068 1.412757,4.301998 0.218641,0.787414 0.538193,1.747684 0.689561,2.803984 -0.100912,0.0576 -0.218641,0.11522 -0.319553,0.17284 -0.11773,0.096 -0.201823,0.11523 -0.252278,0.21126 -0.03364,0.0768 -0.03364,0.15364 -0.03364,0.28808 0.01682,0.21126 -0.01682,0.44172 0.117731,0.57616 0.06727,0.0384 0.353189,0.17285 0.555011,0.24967 -0.201822,0.11523 -0.487738,0.28808 -0.57183,0.42252 -0.03364,0.096 -0.03364,0.21126 -0.03364,0.34569 0,0.096 0,0.19206 0,0.28808 0.01682,0.15364 0.03364,0.28809 0.117729,0.38411 0.100912,0.096 0.454101,0.21126 0.672742,0.28808 -0.185004,0.17285 -0.487738,0.40331 -0.57183,0.48013 -0.06727,0.096 -0.06727,0.17285 -0.06727,0.28808 0.01682,0.23047 0.01682,0.46093 0.151367,0.59537 0.11773,0.0576 0.386827,0.17284 0.672742,0.28808 0.08409,1.4404 0.11773,2.90001 0.11773,4.26358 0,2.70795 -0.151367,5.07021 -0.437282,6.16492 h -0.01682 v 0 c 0,0.0384 -0.01682,0.0576 -0.01682,0.096 -0.941838,4.22517 -3.077793,5.16623 -3.58235,7.04836 -0.03363,0.15364 -0.05045,0.30728 -0.05045,0.44172 0.01682,0.74901 0.487738,1.22914 0.470919,1.63245 0,0.17285 -0.06727,0.3649 -0.353189,0.59537 -0.285916,0.26887 -0.521375,0.30729 -0.622286,0.71059 -0.01682,0.0576 -0.01682,0.11523 -0.01682,0.17285 0.01682,0.3649 0.201823,0.78742 0.336371,0.96027 -0.218641,0.17285 -0.403645,0.32649 -0.4541,0.53775 -0.03364,0.0384 -0.08409,0.11523 -0.08409,0.23046"
   fill="#000000"
   id="path21"
   style="fill:#366bac;fill-opacity:1;stroke-width:0.179724" />
<text
   xml:space="preserve"
   style="font-size:42.3154px;fill:#366bac;fill-opacity:1;stroke-width:3.5263;stroke-dasharray:none"
   x="28.149843"
   y="44.703094"
   id="text21"><tspan
     sodipodi:role="line"
     id="tspan21"
     x="28.149843"
     y="44.703094"
     style="fill:#366bac;fill-opacity:1;stroke-width:3.5263;stroke-dasharray:none">CHESSP</tspan></text></svg>
